<svg id="visual" viewBox="0 0 900 600" width="900" height="600" xmlns="http://www.w3.org/2000/svg" xmlns:xlink="http://www.w3.org/1999/xlink" version="1.1"><g transform="translate(448.3626597601832 292.66446383776395)"><path d="M73.3 -157.9C73.3 -127 36.7 -63.5 47.7 -31.8C58.7 0 117.3 0 147.5 17.4C177.7 34.8 179.3 69.7 175 113C170.7 156.3 160.3 208 130.2 200.3C100 192.5 50 125.3 22.3 86.7C-5.5 48.2 -11 38.4 -36.7 43.6C-62.4 48.7 -108.3 68.9 -137.9 64.1C-167.4 59.3 -180.7 29.7 -169.6 6.4C-158.5 -16.8 -123 -33.7 -108.6 -64.7C-94.1 -95.7 -100.8 -141 -86.2 -163.4C-71.7 -185.8 -35.8 -185.4 0.4 -186.1C36.7 -186.8 73.3 -188.7 73.3 -157.9" fill="none" stroke="#223401" stroke-width="2"></path></g></svg>