<svg id="visual" viewBox="0 0 900 600" width="900" height="600" xmlns="http://www.w3.org/2000/svg" xmlns:xlink="http://www.w3.org/1999/xlink" version="1.1"><g transform="translate(465.9974699631539 267.30623114864306)"><path d="M143.4 -194.7C169.2 -178.6 162.1 -114.5 144.6 -70.2C127.1 -25.9 99.2 -1.3 102.7 47.4C106.1 96.1 140.9 169 129.1 213.5C117.2 257.9 58.6 274 10.7 259.3C-37.2 244.6 -74.5 199.1 -95.1 157.5C-115.7 115.9 -119.7 78 -137 40.7C-154.4 3.4 -185.1 -33.4 -191.2 -76.7C-197.2 -120.1 -178.5 -170.1 -142.6 -182.9C-106.6 -195.7 -53.3 -171.4 2.7 -175.1C58.8 -178.9 117.6 -210.8 143.4 -194.7" fill="#f9f2d5"></path></g></svg>