<svg id="visual" viewBox="0 0 900 600" width="900" height="600" xmlns="http://www.w3.org/2000/svg" xmlns:xlink="http://www.w3.org/1999/xlink" version="1.1"><g transform="translate(410.66501537117307 315.173728825494)"><path d="M124.8 -224.2C149.7 -201.9 149.3 -143.9 173.3 -100.6C197.3 -57.3 245.7 -28.7 261 8.8C276.3 46.3 258.5 92.7 230.5 129C202.5 165.4 164.3 191.8 124.1 201.5C84 211.2 42 204.1 3.3 198.5C-35.5 192.8 -71 188.6 -106.9 176.6C-142.9 164.5 -179.3 144.5 -186.5 113.7C-193.8 83 -171.9 41.5 -160.2 6.8C-148.5 -28 -147 -56 -143.3 -93C-139.7 -129.9 -133.8 -175.8 -109.6 -198.5C-85.3 -221.1 -42.7 -220.6 3.7 -226.9C50 -233.3 100 -246.5 124.8 -224.2" fill="none" stroke="#223401" stroke-width="2"></path></g></svg>