<svg id="visual" viewBox="0 0 900 600" width="900" height="600" xmlns="http://www.w3.org/2000/svg" xmlns:xlink="http://www.w3.org/1999/xlink" version="1.1"><g transform="translate(426.1496545549925 298.0422425001858)"><path d="M87.7 -158.4C125.3 -130.1 175.7 -130.3 213 -108.7C250.4 -87 274.7 -43.5 264.6 -5.8C254.5 31.8 209.9 63.7 176.6 92.2C143.3 120.8 121.1 146.1 93.6 176.2C66 206.3 33 241.2 -7.1 253.4C-47.2 265.7 -94.3 255.4 -120 224.2C-145.7 193.1 -149.9 141 -163 100.2C-176.1 59.3 -198.1 29.7 -210 -6.9C-222 -43.5 -224 -87 -205.4 -118.3C-186.9 -149.6 -147.7 -168.8 -110 -197C-72.3 -225.3 -36.2 -262.6 -5.6 -253C25 -243.3 50 -186.6 87.7 -158.4" fill="#647d2a"></path></g></svg>