<svg id="visual" viewBox="0 0 900 600" width="900" height="600" xmlns="http://www.w3.org/2000/svg" xmlns:xlink="http://www.w3.org/1999/xlink" version="1.1"><g transform="translate(420.9287509941317 299.3309860450137)"><path d="M75.5 -134.1C98.3 -117.6 117.6 -98.3 150.6 -75.5C183.6 -52.7 230.3 -26.3 229.1 -0.7C228 25 178.9 50 155.5 89.4C132.1 128.8 134.3 182.6 112.7 204.8C91 226.9 45.5 217.5 -0.9 219.1C-47.3 220.7 -94.7 233.3 -120.8 213.7C-146.9 194.1 -151.8 142.3 -154.5 101.3C-157.2 60.3 -157.6 30.2 -161.3 -2.2C-165.1 -34.5 -172.2 -69 -170.8 -112.3C-169.5 -155.6 -159.8 -207.7 -129.9 -220.1C-100 -232.5 -50 -205.3 -11.8 -184.8C26.3 -164.3 52.7 -150.6 75.5 -134.1" fill="#647d2a"></path></g></svg>