<svg id="visual" viewBox="0 0 900 600" width="900" height="600" xmlns="http://www.w3.org/2000/svg" xmlns:xlink="http://www.w3.org/1999/xlink" version="1.1"><g transform="translate(435.3597893675336 305.91294466078455)"><path d="M103.9 -190.4C138.1 -160.2 171.7 -139.3 180.2 -109.2C188.8 -79 172.4 -39.5 161.3 -6.4C150.2 26.7 144.4 53.3 133.6 79.7C122.9 106.2 107.2 132.3 84.1 163.7C61 195 30.5 231.5 -6.8 243.3C-44.2 255.2 -88.3 242.3 -112.6 211.7C-136.8 181 -141.2 132.5 -145.7 94.2C-150.3 56 -155.2 28 -152.6 1.5C-150 -25 -139.9 -50 -130.2 -79.3C-120.4 -108.6 -111 -142.2 -89.3 -179.7C-67.7 -217.2 -33.8 -258.6 0.5 -259.5C34.8 -260.3 69.7 -220.7 103.9 -190.4" fill="none" stroke="#223401" stroke-width="2"></path></g></svg>