<svg id="visual" viewBox="0 0 1472 600" width="1472" height="600" xmlns="http://www.w3.org/2000/svg" xmlns:xlink="http://www.w3.org/1999/xlink" version="1.1"><path d="M0 395L61.3 416.8C122.7 438.7 245.3 482.3 368 488.7C490.7 495 613.3 464 736 450C858.7 436 981.3 439 1104 448.3C1226.7 457.7 1349.3 473.3 1410.7 481.2L1472 489L1472 601L1410.7 601C1349.3 601 1226.7 601 1104 601C981.3 601 858.7 601 736 601C613.3 601 490.7 601 368 601C245.3 601 122.7 601 61.3 601L0 601Z" fill="#223401" stroke-linecap="round" stroke-linejoin="miter"></path></svg>