<svg id="visual" viewBox="0 0 1472 400" width="1472" height="400" xmlns="http://www.w3.org/2000/svg" xmlns:xlink="http://www.w3.org/1999/xlink" version="1.1"><path d="M0 159L35 144.5C70 130 140 101 210.2 89C280.3 77 350.7 82 420.8 86.5C491 91 561 95 631 105.3C701 115.7 771 132.3 841 145.5C911 158.7 981 168.3 1051.2 155.7C1121.3 143 1191.7 108 1261.8 99.8C1332 91.7 1402 110.3 1437 119.7L1472 129L1472 0L1437 0C1402 0 1332 0 1261.8 0C1191.7 0 1121.3 0 1051.2 0C981 0 911 0 841 0C771 0 701 0 631 0C561 0 491 0 420.8 0C350.7 0 280.3 0 210.2 0C140 0 70 0 35 0L0 0Z" fill="#f9f2d5" stroke-linecap="round" stroke-linejoin="miter"></path></svg>