<svg id="visual" viewBox="0 0 1504 600" width="1504" height="600" xmlns="http://www.w3.org/2000/svg" xmlns:xlink="http://www.w3.org/1999/xlink" version="1.1"><path d="M0 64L50.2 57.2C100.3 50.3 200.7 36.7 301 40.7C401.3 44.7 501.7 66.3 601.8 88.7C702 111 802 134 902.2 120.8C1002.3 107.7 1102.7 58.3 1203 45C1303.3 31.7 1403.7 54.3 1453.8 65.7L1504 77L1504 0L1453.8 0C1403.7 0 1303.3 0 1203 0C1102.7 0 1002.3 0 902.2 0C802 0 702 0 601.8 0C501.7 0 401.3 0 301 0C200.7 0 100.3 0 50.2 0L0 0Z" fill="#fff" stroke-linecap="round" stroke-linejoin="miter"></path></svg>